<?xml version="1.0" encoding="UTF-8" standalone="no"?>
<!-- Created with Inkscape (http://www.inkscape.org/) -->

<svg
   xmlns:dc="http://purl.org/dc/elements/1.1/"
   xmlns:cc="http://creativecommons.org/ns#"
   xmlns:rdf="http://www.w3.org/1999/02/22-rdf-syntax-ns#"
   xmlns:svg="http://www.w3.org/2000/svg"
   xmlns="http://www.w3.org/2000/svg"
   xmlns:xlink="http://www.w3.org/1999/xlink"
   version="1.1"
   width="300"
   height="300.02417"
   id="svg53383">
  <title
     id="title2850">Industrial Drive</title>
  <metadata
     id="metadata24">
    <rdf:RDF>
      <cc:Work
         rdf:about="">
        <dc:format>image/svg+xml</dc:format>
        <dc:type
           rdf:resource="http://purl.org/dc/dcmitype/StillImage" />
        <dc:title>Industrial Drive</dc:title>
      </cc:Work>
    </rdf:RDF>
  </metadata>
  <defs
     id="defs3">
    <linearGradient
       id="linearGradient2300">
      <stop
         id="stop2302"
         style="stop-color:#000000;stop-opacity:0.32673267"
         offset="0" />
      <stop
         id="stop2304"
         style="stop-color:#000000;stop-opacity:0"
         offset="1" />
    </linearGradient>
    <linearGradient
       x1="99.777298"
       y1="15.4238"
       x2="153.0005"
       y2="248.6311"
       id="aigrd1"
       gradientUnits="userSpaceOnUse">
      <stop
         id="stop53300"
         style="stop-color:#184375;stop-opacity:1"
         offset="0" />
      <stop
         id="stop53302"
         style="stop-color:#c8bddc;stop-opacity:1"
         offset="1" />
    </linearGradient>
    <radialGradient
       cx="14.287618"
       cy="68.872971"
       r="11.68987"
       fx="14.287618"
       fy="72.568001"
       id="radialGradient2846"
       xlink:href="#linearGradient2300"
       gradientUnits="userSpaceOnUse"
       gradientTransform="matrix(1.399258,-2.234445e-7,8.196178e-8,0.513264,4.365074,4.839285)" />
    <linearGradient
       x1="99.777298"
       y1="15.4238"
       x2="153.0005"
       y2="248.6311"
       id="linearGradient2848"
       xlink:href="#aigrd1"
       gradientUnits="userSpaceOnUse"
       gradientTransform="matrix(0.200685,0,0,0.200685,-54.33576,-1.050787)" />
    <linearGradient
       x1="99.777298"
       y1="15.4238"
       x2="153.0005"
       y2="248.6311"
       id="linearGradient3017"
       xlink:href="#aigrd1"
       gradientUnits="userSpaceOnUse"
       gradientTransform="matrix(0.4862208,0,0,0.4862208,-126.67465,0.36986406)" />
    <radialGradient
       cx="24.714285"
       cy="38.57143"
       r="19.714285"
       fx="24.714285"
       fy="38.57143"
       id="radialGradient4571"
       xlink:href="#linearGradient4565"
       gradientUnits="userSpaceOnUse"
       gradientTransform="matrix(0.52571427,0,0,0.18570392,11.976854,28.483449)" />
    <linearGradient
       id="linearGradient4565">
      <stop
         id="stop4567"
         style="stop-color:#000000;stop-opacity:1"
         offset="0" />
      <stop
         id="stop4569"
         style="stop-color:#000000;stop-opacity:0"
         offset="1" />
    </linearGradient>
    <radialGradient
       cx="25.0527"
       cy="39.5928"
       r="15.7572"
       fx="25.0527"
       fy="39.5928"
       id="aigrd2"
       gradientUnits="userSpaceOnUse"
       gradientTransform="matrix(0.65714283,0,0,0.69639037,8.5705131,6.7079349)">
      <stop
         id="stop8602"
         style="stop-color:#777777;stop-opacity:1"
         offset="0" />
      <stop
         id="stop8604"
         style="stop-color:#000000;stop-opacity:1"
         offset="1" />
    </radialGradient>
    <radialGradient
       cx="29.288071"
       cy="15.720984"
       r="8.9020796"
       fx="29.158466"
       fy="15.755712"
       id="radialGradient2714"
       xlink:href="#linearGradient3290"
       gradientUnits="userSpaceOnUse"
       gradientTransform="matrix(0.52571427,0,0,0.55711229,14.981113,10.302664)" />
    <linearGradient
       id="linearGradient3290">
      <stop
         id="stop3292"
         style="stop-color:#fffcde;stop-opacity:1"
         offset="0" />
      <stop
         id="stop3294"
         style="stop-color:#f6e76a;stop-opacity:1"
         offset="0.64485979" />
      <stop
         id="stop3296"
         style="stop-color:#ffb738;stop-opacity:1"
         offset="1" />
    </linearGradient>
    <linearGradient
       x1="99.777298"
       y1="15.4238"
       x2="153.0005"
       y2="248.6311"
       id="linearGradient3200"
       xlink:href="#aigrd1"
       gradientUnits="userSpaceOnUse"
       gradientTransform="matrix(0.18007333,0,0,0.18007333,-42.34192,72.612972)" />
    <radialGradient
       cx="24.714285"
       cy="38.57143"
       r="19.714285"
       fx="24.714285"
       fy="38.57143"
       id="radialGradient3202"
       xlink:href="#linearGradient4565"
       gradientUnits="userSpaceOnUse"
       gradientTransform="matrix(0.19469986,0,0,0.06877601,1.3764977,44.300622)" />
    <radialGradient
       cx="29.288071"
       cy="15.720984"
       r="8.9020796"
       fx="29.158466"
       fy="15.755712"
       id="radialGradient3204"
       xlink:href="#linearGradient3290"
       gradientUnits="userSpaceOnUse"
       gradientTransform="matrix(0.19469986,0,0,0.20632821,16.335479,25.002838)" />
    <radialGradient
       cx="25.0527"
       cy="39.5928"
       r="15.7572"
       fx="25.0527"
       fy="39.5928"
       id="radialGradient3206"
       xlink:href="#aigrd2"
       gradientUnits="userSpaceOnUse"
       gradientTransform="matrix(0.24337482,0,0,0.25791026,0.11494916,36.235995)" />
    <radialGradient
       cx="24.714285"
       cy="38.57143"
       r="19.714285"
       fx="24.714285"
       fy="38.57143"
       id="radialGradient3223"
       xlink:href="#linearGradient4565"
       gradientUnits="userSpaceOnUse"
       gradientTransform="matrix(0.19469986,0,0,0.06877601,2.7880716,6.556928)" />
    <radialGradient
       cx="29.288071"
       cy="15.720984"
       r="8.9020796"
       fx="29.158466"
       fy="15.755712"
       id="radialGradient3225"
       xlink:href="#linearGradient3290"
       gradientUnits="userSpaceOnUse"
       gradientTransform="matrix(0.19469986,0,0,0.20632821,17.013097,6.8842008)" />
    <radialGradient
       cx="25.0527"
       cy="39.5928"
       r="15.7572"
       fx="25.0527"
       fy="39.5928"
       id="radialGradient3227"
       xlink:href="#aigrd2"
       gradientUnits="userSpaceOnUse"
       gradientTransform="matrix(0.24337482,0,0,0.25791026,1.5265231,-1.507699)" />
  </defs>
  <g
     transform="translate(-7.25,264.93037)"
     id="layer2" />
  <path
     d="m 142.32211,3.3070467 c -3.09546,0.2118 -6.10415,0.69123 -9.14458,1.03916 l -0.20783,0 -7.27411,39.6958203 c -11.8562,2.70008 -23.0105,7.28236 -33.045214,13.50905 L 60.020827,34.066117 c -8.820631,6.84807 -16.847319,14.83481 -23.900633,23.48496 L 58.773833,90.59629 c -6.878278,10.51138 -12.050692,22.5138 -14.96387,35.12353 -4.97e-4,0.0595 -4.05e-4,0.19743 0,0.20783 l -39.48799,6.23495 c -0.721942,5.89665 -1.039158,11.99064 -1.039158,18.08134 0,4.9833 0.137596,9.90002 0.623494,14.75604 l 39.487997,7.06627 c 2.80841,13.71284 8.143393,26.51939 15.587364,37.82534 l -23.484968,32.21389 c 6.725938,8.34995 14.490957,15.95225 22.861474,22.65364 l 33.253043,-22.86148 c 11.621491,7.41355 24.594501,12.61205 38.656661,15.17171 l 6.23495,39.28015 c 4.43052,0.40332 8.97399,0.41569 13.50905,0.41569 6.40244,-3e-5 12.51802,-0.24275 18.70484,-1.03918 l 7.48193,-40.11148 c 13.35151,-3.32265 25.89394,-9.08666 36.78618,-16.83435 l 32.00605,23.27714 c 8.30016,-7.06161 15.89016,-15.1784 22.44583,-23.90064 l -23.27715,-33.6687 c 6.3038,-10.88698 10.67177,-22.89899 12.88555,-35.74703 l 39.28017,-6.23494 c 0.34448,-4.09908 0.41566,-8.07442 0.41566,-12.26206 0,-7.27719 -0.84582,-14.41243 -1.87049,-21.40665 l -39.90363,-7.27411 c -3.12707,-11.54694 -8.25791,-22.320114 -14.75604,-32.006052 l 23.48495,-32.213891 c -7.27959,-8.90255 -15.58357,-17.12653 -24.73196,-24.10846 l -33.87654,23.27713 c -9.73646,-5.75834 -20.21428,-10.17664 -31.59039,-12.67772 L 167.26189,4.3462067 c -5.67495,-0.66756 -11.39662,-1.03916 -17.25001,-1.03916 -1.582,0 -3.21014,-0.0498 -4.78013,0 -0.76537,0.0243 -1.52276,-0.0445 -2.28615,0 -0.20672,0.0121 -0.41711,-0.0141 -0.6235,0 z m 5.40362,101.0061233 c 0.75927,-0.0386 1.51735,0 2.28615,0 24.60144,0 44.68378,20.08234 44.68378,44.68378 0,24.60144 -20.08234,44.47595 -44.68378,44.47595 -24.60144,1e-5 -44.47595,-19.87451 -44.47595,-44.47595 1e-5,-23.83264 18.6523,-43.48938 42.1898,-44.68378 z"
     id="path3243"
     style="color:#000000;fill:#2e3436;fill-opacity:1;fill-rule:nonzero;stroke:#3f4561;stroke-width:6.54188251;stroke-linecap:round;stroke-linejoin:round;stroke-miterlimit:4;stroke-opacity:1;stroke-dasharray:none;stroke-dashoffset:0;marker:none;visibility:visible;display:inline;overflow:visible" />
  <path
     d="m 137.71848,11.163837 -5.84049,38.43393 c -11.11316,2.53086 -31.55531,10.27128 -40.961133,16.10773 L 59.844995,42.513577 c -8.267828,6.41889 -8.83482,6.85419 -15.446094,14.96222 l 22.46611,33.319241 c -6.447195,9.852622 -14.191091,27.410452 -16.971508,39.957442 0,0 -39.367678,6.63625 -39.367678,6.63625 -0.6767,5.5271 -0.351483,17.35675 0.103955,21.90842 l 37.604163,6.77424 c 2.632407,12.85342 12.483398,33.54293 19.460839,44.14031 l -23.779749,31.41777 c 6.304405,7.82665 7.566158,8.54285 15.412072,14.82424 l 31.797681,-23.29589 c 10.893154,6.94893 32.515044,15.40206 45.695904,17.8013 l 5.21864,37.95007 c 4.15285,0.37799 15.62549,1.43839 21.42456,0.6918 l 5.84049,-39.50565 c 12.51473,-3.11441 34.13863,-11.99078 44.34824,-19.25291 l 31.76367,22.94997 c 7.77995,-6.61903 7.84966,-7.61638 13.99448,-15.79198 L 235.87293,204.5432 c 5.90873,-10.20468 13.54881,-30.162 15.62387,-42.20483 l 38.53789,-6.39432 c 0.32285,-3.84217 0.33862,-14.55677 -0.62187,-21.11265 l -39.26369,-6.77423 C 247.21803,117.2339 237.15909,97.730513 231.06821,88.651618 l 24.95541,-31.417761 c -6.82332,-8.34462 -9.36034,-9.48956 -17.93539,-16.03392 l -32.86939,23.53781 c -9.12627,-5.39745 -27.32478,-13.62542 -37.98793,-15.96975 l -5.80648,-37.60416 c -5.3193,-0.62572 -20.66607,-0.34787 -23.70595,0 z"
     id="path3285"
     style="opacity:0.34659089;color:#000000;fill:none;stroke:#ffffff;stroke-width:6.54187822;stroke-linecap:butt;stroke-linejoin:miter;stroke-miterlimit:4;stroke-opacity:1;stroke-dasharray:none;stroke-dashoffset:0;marker:none;visibility:visible;display:inline;overflow:visible" />
  <g
     transform="matrix(5.1361108,0,0,4.8466472,24.965882,38.235727)"
     id="g3021">
    <path
       d="m 44.42857,38.57143 c 0,3.6293 -8.826386,6.571429 -19.714285,6.571429 C 13.826386,45.142859 5,42.20073 5,38.57143 c 0,-3.6293 8.826386,-6.571429 19.714285,-6.571429 10.887899,0 19.714285,2.942129 19.714285,6.571429 z"
       id="path4563"
       style="opacity:0.53164559;color:#000000;fill:url(#radialGradient3223);fill-opacity:1;fill-rule:evenodd;stroke:none;stroke-width:0.40487173;marker:none;visibility:visible;display:inline;overflow:visible" />
    <path
       d="m 39.774755,19.008621 c 0,4.783923 -3.878135,8.662058 -8.662057,8.662058 -4.783923,0 -8.662058,-3.878135 -8.662058,-8.662058 0,-4.783922 3.878135,-8.662058 8.662058,-8.662058 4.783922,0 8.662057,3.878136 8.662057,8.662058 z"
       transform="matrix(2.083142,0,0,2.083142,-40.54715,-16.49224)"
       id="path4320"
       style="color:#000000;fill:url(#radialGradient3225);fill-opacity:1;fill-rule:evenodd;stroke:#9c8c0a;stroke-width:0.48004404;stroke-linecap:round;stroke-linejoin:round;stroke-miterlimit:4;stroke-opacity:1;stroke-dashoffset:0;marker:none;visibility:visible;display:inline;overflow:visible" />
    <path
       d="m 39.774755,19.008621 c 0,4.783923 -3.878135,8.662058 -8.662057,8.662058 -4.783923,0 -8.662058,-3.878135 -8.662058,-8.662058 0,-4.783922 3.878135,-8.662058 8.662058,-8.662058 4.783922,0 8.662057,3.878136 8.662057,8.662058 z"
       transform="matrix(1.979782,0,0,1.979782,-37.33128,-14.52746)"
       id="path4322"
       style="opacity:0.67721522;color:#000000;fill:none;stroke:#ffffff;stroke-width:0.50510627;stroke-linecap:round;stroke-linejoin:round;stroke-miterlimit:4;stroke-opacity:1;stroke-dashoffset:0;marker:none;visibility:visible;display:inline;overflow:visible" />
    <path
       d="m 37.284637,24.719966 c -3.016467,5.224673 -6.543503,8.990039 -12.822145,8.990039 -6.100017,0 -10.565537,-4.339697 -13.352476,-9.166816 2.549413,3.05592 6.282932,6.566312 13.087311,6.566312 8.130204,0 9.551776,-2.906855 13.08731,-6.389535 z"
       id="path2659"
       style="opacity:0.36000001;color:#000000;fill:#ffffff;fill-opacity:1;fill-rule:nonzero;stroke:none;stroke-width:1;marker:none;visibility:visible;display:inline;overflow:visible" />
    <path
       d="m 37.284637,24.012862 c -3.016467,5.224673 -6.543503,8.990039 -12.822145,8.990039 -6.100017,0 -10.565537,-4.339697 -13.352476,-9.166816 2.549413,3.05592 6.282932,6.566312 13.087311,6.566312 8.130204,0 9.551776,-2.906855 13.08731,-6.389535 z"
       id="path8606"
       style="fill:url(#radialGradient3227);fill-rule:nonzero;stroke:none" />
    <path
       d="m 21.751711,17.714134 c 0,2.5 -1.125,4.5 -2.5,4.5 -1.375,0 -2.625,-2 -2.625,-4.5 0,-2.5 1.125,-4.5 2.5,-4.5 1.375,0 2.5,2 2.5,4.5 l 0.125,0 z"
       id="path8610"
       style="opacity:0.36000001;fill:#ffffff;fill-rule:nonzero;stroke:none" />
    <path
       d="m 31.042065,17.714134 c 0,2.5 -1.125,4.5 -2.5,4.5 -1.375,0 -2.5,-2 -2.5,-4.5 0,-2.5 1.125,-4.5 2.5,-4.5 1.375,0 2.5,2 2.5,4.5 z"
       id="path8612"
       style="opacity:0.36000001;fill:#ffffff;fill-rule:nonzero;stroke:none" />
    <path
       d="m 21.751711,17.089134 c 0,2.5 -1.125,4.5 -2.5,4.5 -1.375,0 -2.5,-2 -2.5,-4.5 0,-2.5 1.125,-4.5 2.5,-4.5 1.375,0 2.5,2 2.5,4.5 z"
       id="path8614"
       style="fill:#000000;fill-rule:nonzero;stroke:none" />
    <path
       d="m 31.042065,17.089134 c 0,2.5 -1.125,4.5 -2.5,4.5 -1.375,0 -2.5,-2 -2.5,-4.5 0,-2.5 1.125,-4.5 2.5,-4.5 1.375,0 2.5,2 2.5,4.5 z"
       id="path8616"
       style="fill:#000000;fill-rule:nonzero;stroke:none" />
  </g>
</svg>
